<mxfile host="app.diagrams.net" agent="Mozilla/5.0 (Macintosh; Intel Mac OS X 10_15_7) AppleWebKit/537.36 (KHTML, like Gecko) Chrome/138.0.0.0 Safari/537.36" version="27.1.6">
  <diagram name="Page-1" id="oC1BoypH5lP5g_drxP1E">
    <mxGraphModel dx="614" dy="1627" grid="1" gridSize="10" guides="1" tooltips="1" connect="1" arrows="1" fold="1" page="1" pageScale="1" pageWidth="827" pageHeight="1169" math="0" shadow="0">
      <root>
        <mxCell id="0" />
        <mxCell id="1" parent="0" />
        <mxCell id="h7lxmg1ClQ-oWd5Mk2G1-15" style="edgeStyle=orthogonalEdgeStyle;rounded=0;orthogonalLoop=1;jettySize=auto;html=1;exitX=1;exitY=0.5;exitDx=0;exitDy=0;entryX=0;entryY=0.5;entryDx=0;entryDy=0;" edge="1" parent="1" source="h7lxmg1ClQ-oWd5Mk2G1-4" target="h7lxmg1ClQ-oWd5Mk2G1-9">
          <mxGeometry relative="1" as="geometry" />
        </mxCell>
        <mxCell id="h7lxmg1ClQ-oWd5Mk2G1-4" value="&lt;div&gt;&lt;b&gt;Cropping&lt;/b&gt;&lt;/div&gt;&lt;div&gt;&lt;b&gt;&lt;br&gt;&lt;/b&gt;&lt;/div&gt;&lt;div&gt;&lt;b&gt;&lt;br&gt;&lt;/b&gt;&lt;/div&gt;&lt;div&gt;&lt;b&gt;Voxel Resampling&lt;/b&gt;&lt;/div&gt;&lt;div&gt;&lt;b&gt;&lt;br&gt;&lt;/b&gt;&lt;/div&gt;&lt;div&gt;&lt;b&gt;&lt;br&gt;&lt;/b&gt;&lt;/div&gt;&lt;div&gt;&lt;b&gt;Z-score Normalization&lt;/b&gt;&lt;/div&gt;&lt;div&gt;&lt;b&gt;&lt;br&gt;&lt;/b&gt;&lt;/div&gt;&lt;div&gt;&lt;b&gt;&lt;br&gt;&lt;/b&gt;&lt;/div&gt;&lt;div&gt;&lt;b&gt;Data Augmentation&lt;/b&gt;&lt;/div&gt;" style="rounded=1;whiteSpace=wrap;html=1;dashed=1;" vertex="1" parent="1">
          <mxGeometry x="400" y="80" width="120" height="220" as="geometry" />
        </mxCell>
        <mxCell id="h7lxmg1ClQ-oWd5Mk2G1-8" value="&lt;b&gt;Preprocessing&lt;/b&gt;" style="text;html=1;align=center;verticalAlign=middle;resizable=0;points=[];autosize=1;strokeColor=none;fillColor=none;" vertex="1" parent="1">
          <mxGeometry x="405" y="50" width="110" height="30" as="geometry" />
        </mxCell>
        <mxCell id="h7lxmg1ClQ-oWd5Mk2G1-16" style="edgeStyle=orthogonalEdgeStyle;rounded=0;orthogonalLoop=1;jettySize=auto;html=1;exitX=1;exitY=0.25;exitDx=0;exitDy=0;entryX=0;entryY=0.5;entryDx=0;entryDy=0;" edge="1" parent="1" source="h7lxmg1ClQ-oWd5Mk2G1-9" target="h7lxmg1ClQ-oWd5Mk2G1-11">
          <mxGeometry relative="1" as="geometry" />
        </mxCell>
        <mxCell id="h7lxmg1ClQ-oWd5Mk2G1-17" style="edgeStyle=orthogonalEdgeStyle;rounded=0;orthogonalLoop=1;jettySize=auto;html=1;exitX=1;exitY=0.5;exitDx=0;exitDy=0;entryX=0;entryY=0.5;entryDx=0;entryDy=0;" edge="1" parent="1" source="h7lxmg1ClQ-oWd5Mk2G1-9" target="h7lxmg1ClQ-oWd5Mk2G1-13">
          <mxGeometry relative="1" as="geometry" />
        </mxCell>
        <mxCell id="h7lxmg1ClQ-oWd5Mk2G1-18" style="edgeStyle=orthogonalEdgeStyle;rounded=0;orthogonalLoop=1;jettySize=auto;html=1;exitX=1;exitY=0.75;exitDx=0;exitDy=0;entryX=0;entryY=0.5;entryDx=0;entryDy=0;" edge="1" parent="1" source="h7lxmg1ClQ-oWd5Mk2G1-9" target="h7lxmg1ClQ-oWd5Mk2G1-14">
          <mxGeometry relative="1" as="geometry" />
        </mxCell>
        <mxCell id="h7lxmg1ClQ-oWd5Mk2G1-9" value="&lt;div&gt;&lt;b&gt;3D nnU-Net V2&lt;/b&gt;&lt;/div&gt;&lt;div&gt;&lt;b&gt;&lt;br&gt;&lt;/b&gt;&lt;/div&gt;&lt;div&gt;&lt;b&gt;Encoderâ€“Decoder + Skip Connections&lt;/b&gt;&lt;/div&gt;&lt;div&gt;&lt;b&gt;&lt;br&gt;&lt;/b&gt;&lt;/div&gt;&lt;div&gt;&lt;b&gt;Leaky ReLU + InstanceNorm&lt;/b&gt;&lt;/div&gt;" style="rounded=1;whiteSpace=wrap;html=1;dashed=1;" vertex="1" parent="1">
          <mxGeometry x="540" y="80" width="120" height="220" as="geometry" />
        </mxCell>
        <mxCell id="h7lxmg1ClQ-oWd5Mk2G1-10" value="&lt;b&gt;3D nnU-Net V2 Model&lt;/b&gt;" style="text;html=1;align=center;verticalAlign=middle;resizable=0;points=[];autosize=1;strokeColor=none;fillColor=none;" vertex="1" parent="1">
          <mxGeometry x="540" y="50" width="140" height="30" as="geometry" />
        </mxCell>
        <mxCell id="h7lxmg1ClQ-oWd5Mk2G1-22" style="edgeStyle=orthogonalEdgeStyle;rounded=0;orthogonalLoop=1;jettySize=auto;html=1;exitX=1;exitY=0.5;exitDx=0;exitDy=0;entryX=0;entryY=0.25;entryDx=0;entryDy=0;" edge="1" parent="1" source="h7lxmg1ClQ-oWd5Mk2G1-11" target="h7lxmg1ClQ-oWd5Mk2G1-19">
          <mxGeometry relative="1" as="geometry">
            <Array as="points">
              <mxPoint x="810" y="133" />
            </Array>
          </mxGeometry>
        </mxCell>
        <mxCell id="h7lxmg1ClQ-oWd5Mk2G1-11" value="&lt;b&gt;Left-only model&lt;/b&gt;" style="rounded=1;whiteSpace=wrap;html=1;" vertex="1" parent="1">
          <mxGeometry x="700" y="80" width="110" height="60" as="geometry" />
        </mxCell>
        <mxCell id="h7lxmg1ClQ-oWd5Mk2G1-12" value="&lt;b&gt;Training Strategies&lt;/b&gt;" style="text;html=1;align=center;verticalAlign=middle;resizable=0;points=[];autosize=1;strokeColor=none;fillColor=none;" vertex="1" parent="1">
          <mxGeometry x="695" y="48" width="130" height="30" as="geometry" />
        </mxCell>
        <mxCell id="h7lxmg1ClQ-oWd5Mk2G1-23" style="edgeStyle=orthogonalEdgeStyle;rounded=0;orthogonalLoop=1;jettySize=auto;html=1;exitX=1;exitY=0.5;exitDx=0;exitDy=0;entryX=0;entryY=0.5;entryDx=0;entryDy=0;" edge="1" parent="1" source="h7lxmg1ClQ-oWd5Mk2G1-13" target="h7lxmg1ClQ-oWd5Mk2G1-19">
          <mxGeometry relative="1" as="geometry" />
        </mxCell>
        <mxCell id="h7lxmg1ClQ-oWd5Mk2G1-13" value="&lt;b&gt;Right-only model&lt;/b&gt;" style="rounded=1;whiteSpace=wrap;html=1;" vertex="1" parent="1">
          <mxGeometry x="700" y="160" width="120" height="60" as="geometry" />
        </mxCell>
        <mxCell id="h7lxmg1ClQ-oWd5Mk2G1-14" value="&lt;b&gt;Combined model&lt;/b&gt;" style="rounded=1;whiteSpace=wrap;html=1;" vertex="1" parent="1">
          <mxGeometry x="700" y="240" width="120" height="60" as="geometry" />
        </mxCell>
        <mxCell id="h7lxmg1ClQ-oWd5Mk2G1-32" style="edgeStyle=orthogonalEdgeStyle;rounded=0;orthogonalLoop=1;jettySize=auto;html=1;exitX=0.5;exitY=1;exitDx=0;exitDy=0;entryX=0.5;entryY=0;entryDx=0;entryDy=0;" edge="1" parent="1" source="h7lxmg1ClQ-oWd5Mk2G1-19" target="h7lxmg1ClQ-oWd5Mk2G1-27">
          <mxGeometry relative="1" as="geometry" />
        </mxCell>
        <mxCell id="h7lxmg1ClQ-oWd5Mk2G1-19" value="&lt;div&gt;&lt;b&gt;5-fold Cross Validation&lt;/b&gt;&lt;/div&gt;&lt;div&gt;&lt;b&gt;&lt;br&gt;&lt;/b&gt;&lt;/div&gt;&lt;div&gt;&lt;b&gt;300 Epochs, SGD Optimizer&lt;/b&gt;&lt;/div&gt;&lt;div&gt;&lt;b&gt;&lt;br&gt;&lt;/b&gt;&lt;/div&gt;&lt;div&gt;&lt;b&gt;Metrics: Dice, HD, Loss&lt;/b&gt;&lt;/div&gt;" style="rounded=1;whiteSpace=wrap;html=1;dashed=1;" vertex="1" parent="1">
          <mxGeometry x="840" y="78" width="120" height="220" as="geometry" />
        </mxCell>
        <mxCell id="h7lxmg1ClQ-oWd5Mk2G1-20" value="&lt;b&gt;Training &amp;amp; Evaluation&lt;/b&gt;" style="text;html=1;align=center;verticalAlign=middle;resizable=0;points=[];autosize=1;strokeColor=none;fillColor=none;" vertex="1" parent="1">
          <mxGeometry x="825" y="48" width="150" height="30" as="geometry" />
        </mxCell>
        <mxCell id="h7lxmg1ClQ-oWd5Mk2G1-25" style="edgeStyle=orthogonalEdgeStyle;rounded=0;orthogonalLoop=1;jettySize=auto;html=1;exitX=1;exitY=0.25;exitDx=0;exitDy=0;entryX=0.016;entryY=0.806;entryDx=0;entryDy=0;entryPerimeter=0;" edge="1" parent="1" source="h7lxmg1ClQ-oWd5Mk2G1-14" target="h7lxmg1ClQ-oWd5Mk2G1-19">
          <mxGeometry relative="1" as="geometry" />
        </mxCell>
        <mxCell id="h7lxmg1ClQ-oWd5Mk2G1-30" style="edgeStyle=orthogonalEdgeStyle;rounded=0;orthogonalLoop=1;jettySize=auto;html=1;exitX=0;exitY=0.5;exitDx=0;exitDy=0;entryX=1;entryY=0.5;entryDx=0;entryDy=0;" edge="1" parent="1" source="h7lxmg1ClQ-oWd5Mk2G1-26" target="h7lxmg1ClQ-oWd5Mk2G1-29">
          <mxGeometry relative="1" as="geometry" />
        </mxCell>
        <mxCell id="h7lxmg1ClQ-oWd5Mk2G1-26" value="&lt;font style=&quot;font-size: 18px;&quot;&gt;Start&lt;/font&gt;" style="ellipse;whiteSpace=wrap;html=1;" vertex="1" parent="1">
          <mxGeometry x="855" y="-20" width="90" height="50" as="geometry" />
        </mxCell>
        <mxCell id="h7lxmg1ClQ-oWd5Mk2G1-27" value="Output / End" style="ellipse;whiteSpace=wrap;html=1;" vertex="1" parent="1">
          <mxGeometry x="855" y="330" width="90" height="50" as="geometry" />
        </mxCell>
        <mxCell id="h7lxmg1ClQ-oWd5Mk2G1-31" style="edgeStyle=orthogonalEdgeStyle;rounded=0;orthogonalLoop=1;jettySize=auto;html=1;exitX=0;exitY=0.5;exitDx=0;exitDy=0;entryX=0;entryY=0.5;entryDx=0;entryDy=0;" edge="1" parent="1" source="h7lxmg1ClQ-oWd5Mk2G1-29" target="h7lxmg1ClQ-oWd5Mk2G1-4">
          <mxGeometry relative="1" as="geometry" />
        </mxCell>
        <mxCell id="h7lxmg1ClQ-oWd5Mk2G1-29" value="&lt;strong data-end=&quot;392&quot; data-start=&quot;368&quot;&gt;CBCT Data Collection&lt;/strong&gt;&lt;br&gt;&amp;amp; &lt;strong data-end=&quot;432&quot; data-start=&quot;399&quot;&gt;TMJ Annotation (Left / Right)&lt;/strong&gt;" style="rounded=1;whiteSpace=wrap;html=1;" vertex="1" parent="1">
          <mxGeometry x="480" y="-25" width="310" height="60" as="geometry" />
        </mxCell>
      </root>
    </mxGraphModel>
  </diagram>
</mxfile>
